<?xml version="1.0" encoding="utf-8"?>
<!-- Generator: Adobe Illustrator 18.0.0, SVG Export Plug-In . SVG Version: 6.00 Build 0)  -->
<!DOCTYPE svg PUBLIC "-//W3C//DTD SVG 1.1//EN" "http://www.w3.org/Graphics/SVG/1.1/DTD/svg11.dtd">
<svg version="1.1" id="Layer_1" xmlns="http://www.w3.org/2000/svg" xmlns:xlink="http://www.w3.org/1999/xlink" x="0px" y="0px"
	 viewBox="0 0 595.3 841.9" enable-background="new 0 0 595.3 841.9" xml:space="preserve">
<g>
	<path fill="#FFFFFF" d="M36.3,143.2v541.4h541.4V143.2H36.3z M352.7,457.2V317.2c0.3,0,0.6-0.1,0.9-0.1c23.4,0,46.8,0,70.2,0
		c4.9,0,8.6,3.7,8.8,8.6c0,0.5,0,0.9,0,1.4c0,31.7,0,63.4,0,95.1c0,0.5,0,1,0,1.6h-13.2v-20.3h-53.6v1.4c0,12.6,0,25.2,0,37.7
		 M360.8,478c-0.9-1.1-2.1-1.8-3.4-2.3c-0.9-0.4-1.8-0.8-2.6-1.4c-1.6-1.2-2.2-2.9-1.6-4.6c0.5-1.6,2-2.8,3.6-3
		c2-0.1,3.4,0.7,4.4,2.7c-0.4,0.2-0.6,0.3-1,0.4c-0.3-0.4-0.5-0.7-0.8-1c-1.2-1.2-3-1.3-4.2-0.2c-1.2,1.1-1.4,3-0.2,4.2
		c0.8,0.7,1.8,1.2,2.7,1.7c1.1,0.6,2.3,1.1,3.2,1.9c2.1,1.7,2.7,4.4,1.7,6.8c-1,2.3-3.4,3.8-5.8,3.6c-2.8-0.2-4.8-2-5.4-4.9
		c0.3-0.1,0.6-0.3,1-0.5c0.1,0.3,0.2,0.6,0.3,0.8c0.7,2.1,2.4,3.4,4.5,3.4c2,0,3.4-1,4.3-2.8C362.3,481.2,362.1,479.5,360.8,478z
		 M262,457.2V317.1c1.7,0,3.3,0.1,5,0c1.8-0.2,3.2,0.4,4.6,1.6c11.1,9.1,22.2,18.1,33.4,27.1c0.7,0.6,1,1.2,1,2.1
		c0,33.5,0,66.9,0,100.4v1.7h36.5V317.2h7.5v140H262z M348.1,466.9v19.8c-0.2,0-0.4,0.1-0.6,0.1c-0.2,0-0.3-0.1-0.6-0.1V467
		C347.4,466.9,347.7,466.9,348.1,466.9z M272.7,480.3c0-1.5,0-3,0-4.5V467h1.1v19.6c-1.1,0.3-1.8,0-2.5-0.9
		c-3.5-5.1-7.1-10.1-10.7-15.1c-0.3-0.4-0.6-0.8-0.9-1.2c-0.1,0-0.2,0-0.3,0.1v17.2c-0.4,0-0.8,0.1-1.2,0.1v-19.6
		c1.3-0.4,1.3-0.4,2.1,0.7c3.8,5.3,7.5,10.6,11.3,15.8c0.3,0.4,0.5,0.7,0.9,1.3C272.8,483.2,272.7,481.7,272.7,480.3z M246.1,443
		c0-6.2,0-12.4,0-18.7v-1.7c-0.6,0-1.1,0-1.6,0c-20.2,0-40.4,0-60.6,0c-0.4,0-0.8,0-1.2,0c-1.8-0.1-3.2-1.5-3.3-3.3
		c0-0.4,0-0.7,0-1.1c0-30.6,0-61.2,0-91.8c0-1.2,0.1-2.4,0.5-3.4c1.1-3.5,4.3-5.8,8-5.8c3.1,0,6.2,0,9.3,0c20.2,0,40.3,0,60.5,0h1.6
		v140.1c-0.4-0.4-0.7-0.6-0.9-0.9c-3.7-4.1-7.7-8.5-11-12 M169.6,502.8c-0.4,0.7-0.6,1.4-0.6,2.2c0,1,0,2,0,3c0,0.7-0.4,0.8-1.1,0.6
		c0-1.1,0-2.3,0-3.5c0-0.8-0.2-1.6-0.6-2.3c-1.2-2.1-2.4-4.2-3.6-6.3c1-0.4,1.1-0.4,1.5,0.4c1.1,1.9,2.1,3.7,3.3,5.7
		c1-1.7,1.8-3.2,2.7-4.8c0.2-0.4,0.4-0.7,0.6-1.1c0.3-0.6,0.7-0.7,1.5-0.4C172,498.6,170.8,500.7,169.6,502.8z M185.3,506.1
		c-2.4,3.6-7.6,3.5-9.7-0.2c-1.3-2.3-1.3-4.6,0-6.9c1.2-2.1,3.6-3.3,5.8-2.9c2.5,0.5,4.5,2.4,4.9,5c0.1,0.4,0.1,0.9,0.1,1.1
		C186.3,503.7,186,505,185.3,506.1z M187.2,487.9c-0.2,0.8-0.7,0.7-1.1,0.4c-0.8-0.6-1.6-1.2-2.4-1.8c-0.3-0.2-0.6-0.5-0.8-0.7
		c-1.2,0.4-2.2,0.9-3.4,1.2c-3.5,0.7-6.5-0.5-8.8-3.2c-3.6-4.1-3.4-10.8,0.3-14.8c4-4.3,10.6-3.9,14.1,0.8c3.3,4.4,3,10.7-0.9,14.7
		c-0.2,0.2-0.3,0.3-0.6,0.6C184.9,486.1,186.1,487,187.2,487.9z M197.5,500.3c0,1.4,0,2.7,0,4.1c0,2.6-1.7,4.3-4.3,4.4
		c-2.6,0-4.5-1.7-4.5-4.3c-0.1-1.8,0-3.5,0-5.3c0-0.9,0-1.9,0-2.9c0.4,0,0.7-0.1,1-0.1c0,0.2,0.1,0.4,0.1,0.6c0,2.4,0,4.8,0,7.2
		c0,0.7,0.2,1.6,0.5,2.2c0.7,1.2,2.4,1.8,3.8,1.4c1.4-0.4,2.3-1.5,2.3-3c0-2.3,0-4.6,0-6.9c0-0.4,0-0.9,0-1.4h1.1
		C197.5,497.6,197.5,499,197.5,500.3z M194.4,486.8c-3.1-0.7-4.6-2.5-4.8-5.7c-0.1-2.6-0.1-5.2-0.1-7.8c0-2.1,0-4.2,0-6.4h8.2v19.3
		c2.1,0.1,4.1,0,6-1c1.4-0.8,2-2.2,2.3-3.7c0.2-1.1,0.3-2.1,0.3-3.2c0-3.4,0-6.8,0-10.3c0-0.4,0-0.7,0.1-1.1
		c0.1-0.2,0.4-0.3,0.6-0.4c0.1,0,0.3,0.2,0.4,0.4c0.1,0.1,0,0.4,0,0.5c-0.1,4.3-0.2,8.6-0.4,13c0,0.8-0.3,1.7-0.5,2.5
		c-0.8,2.4-2.6,3.6-5,4C199.1,487.4,196.8,487.4,194.4,486.8z M207,508c-0.7-1.2-1.4-2.3-2-3.5c-0.4-0.7-0.8-1-1.6-0.9
		c-0.6,0.1-1.2,0-1.9,0c0,1.5,0,2.8,0,4.2c0,0.8-0.1,0.8-1.1,0.7v-12.3c1.6,0,3.2-0.2,4.8,0.1c1.6,0.4,2.7,1.4,3,3.1
		c0.2,1.6-0.5,2.8-1.9,3.6c-0.2,0.1-0.4,0.2-0.7,0.4c1,1.7,1.9,3.3,2.9,5C207.8,508.9,207.3,508.7,207,508z M207.5,487.1
		c-0.5-0.6-0.2-1,0-1.3c0.5-1.1,1.1-2.2,1.7-3.2c2.9-5.4,5.8-10.8,8.7-16.3c0.1-0.2,0.2-0.4,0.5-0.8c3.6,7.1,7.1,14,10.6,21.1h-9.3
		c-0.4-0.8-0.8-1.6-1.3-2.5h-8.8C208.8,485,208.9,486.6,207.5,487.1z M220.5,504c-0.9,0.1-1.9,0-2.9,0v4.4c-0.6,0.2-1.1,0.3-1.1-0.5
		c0-3.9,0-7.8,0-11.8c1.6,0,3.1-0.1,4.5,0c2,0.2,3.4,2,3.3,4C224.3,502.3,222.7,503.9,220.5,504z M226.7,508.6c0-4.1,0-8.1,0-12.3
		h6.8v1h-5.6v4.6h5.1v1.1h-5.1v4.6h5.6c0,0.4,0,0.7,0.1,1.1H226.7z M242.4,508c-0.7-1.2-1.4-2.4-2.1-3.6c-0.3-0.5-0.6-0.8-1.3-0.8
		c-0.7,0.1-1.3,0-2.1,0c0,1.4,0,2.8,0,4.1c0,0.7-0.2,1.1-1,0.8v-12.3c1.5,0,3.1-0.2,4.7,0.1c1.6,0.3,2.7,1.3,3.1,3
		c0.3,1.4-0.4,2.7-1.8,3.6c-0.2,0.1-0.5,0.3-0.7,0.4c0.9,1.6,1.9,3.3,2.9,5C243.2,508.8,242.8,508.6,242.4,508z M252.7,497.3H247
		v4.6h5.1v1.1H247c0,1.4,0,2.7,0,4c0,0.4,0,0.7,0,1.1c-0.1,0.6-0.1,0.6-1,0.5v-12.2h6.7V497.3z M254.3,477.3h-8.6v8.1h8.5v1.3h-9.8
		V467h9.8v1.2h-8.6v8h8.6V477.3z M261.6,508.6h-6.7v-12.3h6.7v1.1H256v4.5h5.1v1.1H256v4.6h5.6V508.6z M267.1,507
		c1.9,1.1,4.3,0.6,5.7-1.1c0.3-0.3,0.5-0.7,0.8-1.1c0.2,0,0.3,0,0.4,0.1c0.2,0.1,0.3,0.2,0.4,0.3c-0.8,2.6-4.2,4.3-7.2,3.1
		c-2.5-1-3.9-3.6-3.7-6.7c0.2-2.7,2.1-4.9,4.6-5.5c2.6-0.6,5.1,0.7,6.3,3.4c-0.3,0.2-0.6,0.3-0.9,0.5c-0.1-0.2-0.3-0.3-0.4-0.5
		c-1.1-1.8-2.7-2.6-4.8-2.3c-2.1,0.4-3.3,1.8-3.8,3.8C264.1,503.4,265.2,505.9,267.1,507z M280.9,497.3c0,0.5-0.1,0.9-0.1,1.3
		c0,3,0,6,0,9.1c0,0.9,0,0.9-1.1,0.9v-11.2h-3.7c0-0.4,0-0.7-0.1-1.1h8.6c0,0.3,0.1,0.6,0.1,1H280.9z M282.8,468.1v18.5h-1.1v-18.5
		h-5v-1.1h11c0,0.3,0.1,0.7,0.1,1.1H282.8z M300,506.3c-0.6,1.5-1.9,2.3-3.5,2.3c-1.3,0.1-2.6,0-3.9,0c-0.3-1-0.4-10.6-0.1-12.4
		c1.5,0,2.9-0.1,4.4,0c2.3,0.2,3.5,2.8,2.4,4.8c-0.2,0.3-0.5,0.7-0.7,1.1c0.2,0.2,0.2,0.3,0.3,0.4
		C300.1,503.5,300.6,504.8,300,506.3z M300.5,477.3H292c-0.3,1-0.4,5.5-0.2,8.1h8.6v1.2h-9.8V467h9.9v1.1h-8.7v8.2h8.7V477.3z
		 M311.4,504.7c-0.1,2.3-1.7,3.9-4,4.1c-2.5,0.1-4.3-1.2-4.7-3.5c0-0.1-0.1-0.2-0.1-0.3c0-2.9,0-5.7,0-8.7c0.4,0,0.6,0,1-0.1
		c0,0.2,0.1,0.4,0.1,0.6c0,2.5,0,5,0,7.4c0,1.7,0.7,2.8,2.2,3.2c2.6,0.8,4.5-1,4.5-3c0-2.3,0-4.5,0-6.8c0-0.4,0-0.9,0-1.4h1.1
		c0,1.1,0,2.2,0,3.3C311.4,501.2,311.4,502.9,311.4,504.7z M313,485.8c-1-1.7-2.2-3.4-3.3-5.1c-0.4-0.6-0.8-0.9-1.5-0.8
		c-0.8,0.1-1.7,0-2.6,0v6.8h-1.1v-19.8c1.8,0,3.4-0.1,5.1,0c2.7,0.2,5.2,2.4,5.7,5c0.6,3-0.8,5.8-3.4,7.2c-0.4,0.2-0.7,0.3-1.3,0.5
		c0.7,1.2,1.5,2.3,2.2,3.5c0.7,1.1,1.4,2.3,2.2,3.4C313.9,486.9,313.4,486.6,313,485.8z M315.7,497.4c0,3.5,0,6.9,0,10.4
		c0,0.9,0,0.9-1,0.8v-12.3h1V497.4z M318.9,508.6c0-4.1,0-8.2,0-12.3c0.4,0,0.6,0,1.1-0.1v11.3h5.6c0.1,0.4,0.1,0.7,0.2,1.1H318.9z
		 M323.9,479.8c-1.3,0.1-2.6,0-4,0v6.8h-1.3V467c2,0,4-0.2,5.8,0c3.1,0.4,5.3,3.4,5.1,6.7C329.4,476.8,327,479.5,323.9,479.8z
		 M337.6,503.4c-0.4,3-2.9,5.2-6,5.2c-1.2,0-2.3,0-3.7,0v-12.5c1.8,0.1,3.6-0.3,5.4,0.2C336.4,497.3,338.1,500.2,337.6,503.4z
		 M340.7,508.5v-12.3c0.3,0,0.6,0,1,0.1c0,1.4,0,2.7,0,4c0,2.5,0,5,0,7.5C341.7,508.4,341.6,508.8,340.7,508.5z M343.4,486.6
		c-1,0.4-1.5,0-2-0.8c-1-1.7-2.2-3.4-3.3-5.1c-0.4-0.6-0.8-0.9-1.5-0.8c-0.8,0.1-1.7,0-2.6,0v6.8c-0.4,0-0.7,0.1-1.1,0.1V467
		c1.9,0,3.9-0.2,5.8,0c2.5,0.3,4.7,2.7,5,5.2c0.4,3-0.9,5.6-3.4,6.9c-0.4,0.2-0.7,0.3-1.3,0.5C340.4,482.1,341.9,484.3,343.4,486.6z
		 M354.1,508.5c-1.2,0.3-1.3,0.3-1.8-0.6c-2-3.2-4-6.3-6.1-9.7c-0.1,0.5-0.2,0.7-0.2,1c0,2.8,0,5.7,0,8.5c0,0.9,0,0.9-1.1,0.8v-12.2
		c0.4,0,0.9-0.1,1.3-0.1c2.2,3.4,4.3,6.8,6.5,10.4c0.5-1.3,0.2-2.4,0.3-3.4c0.1-1.1,0-2.3,0-3.4c0-1.1,0-2.2,0-3.4
		c0.4,0,0.7,0,1-0.1V508.5z M368.2,508.4c-0.9,0.3-1,0.3-1-0.5c0-0.3,0-0.7,0-1.3c-0.4,0.3-0.6,0.5-0.8,0.7c-1.8,1.5-3.8,1.8-6,1
		c-2.2-0.8-3.4-2.5-3.7-4.8c-0.3-2.1,0.1-4.1,1.5-5.7c3.2-3.5,7.9-1.8,9.2,1.2c-0.3,0.1-0.5,0.3-0.8,0.4c-0.2-0.2-0.3-0.4-0.5-0.5
		c-1.3-1.6-2.9-2.2-4.9-1.7c-2,0.6-3.1,2.1-3.4,4.1c-0.2,1.5,0,2.9,0.9,4.1c1.2,1.6,2.8,2.3,4.7,1.9c1.8-0.3,3.2-1.3,3.6-3.2
		c0.1-0.4,0.1-0.9,0.2-1.4c-1.4,0-2.7,0-4,0c-0.8,0-0.8,0-0.6-1.1h5.7V508.4z M376,485.4c0,0.4,0,0.8,0.1,1.2h-9.7
		c-0.3-0.9-0.4-17.9-0.1-19.7h9.8c0,0.3,0,0.7,0.1,1.1h-8.6v8.1h8.5c0,0.4,0.1,0.8,0.1,1.2h-8.6v8.1H376z M381,504.1
		c-0.9,0.1-1.8,0-2.8,0c0,1.4,0,2.6,0,3.8c0,0.7-0.3,0.9-1,0.7v-12.3c1.5,0,3.1-0.2,4.6,0c1.9,0.2,3.3,2.2,3.1,4
		C384.8,502.3,383.2,503.9,381,504.1z M384.3,486.9c-2.7-0.4-4.5-2.2-5-4.9c0.3-0.1,0.6-0.3,1-0.4c0.1,0.3,0.2,0.5,0.2,0.7
		c0.6,2.1,2.4,3.5,4.4,3.5c2.1,0,3.9-1.2,4.5-3.1c0.5-1.7,0.3-3.3-0.9-4.7c-1-1.1-2.1-1.8-3.5-2.2c-1.2-0.4-2.3-1-3.2-2
		c-1.2-1.4-1.4-2.9-0.7-4.5c0.8-1.7,2.1-2.5,4-2.5c1.8,0.1,3,1,3.8,2.7c-0.4,0.2-0.7,0.3-1,0.4c-0.3-0.4-0.5-0.7-0.7-0.9
		c-1.1-1.3-3-1.4-4.2-0.3c-1.3,1.2-1.4,3.1-0.2,4.3c0.8,0.7,1.8,1.2,2.7,1.7c1.3,0.6,2.6,1.3,3.6,2.3c1.8,1.8,2.2,4.5,1.1,6.7
		C389.1,485.9,386.7,487.2,384.3,486.9z M394.9,508c-0.3-1-0.7-2-1.1-3.1h-5.4c-0.4,1.1-0.8,2.1-1.1,3.1c-0.2,0.6-0.5,0.8-1.2,0.4
		c1.5-4.1,2.9-8.1,4.4-12.2h1.4c1.5,4.1,2.9,8.1,4.4,12.2C395.5,508.8,395.1,508.7,394.9,508z M404.8,508.1
		c-0.7-1.2-1.4-2.4-2.1-3.6c-0.3-0.6-0.8-0.9-1.5-0.8c-0.6,0.1-1.2,0-2,0c0,1.2,0,2.3,0,3.4c0,0.4,0,0.7,0,1.1
		c-0.1,0.5-0.1,0.5-1,0.5v-12.3c1.5,0,3-0.1,4.4,0c1.6,0.1,2.9,1.4,3.3,3c0.3,1.4-0.3,2.8-1.7,3.7c-0.2,0.1-0.5,0.3-0.8,0.5
		c0.9,1.6,1.9,3.3,2.9,5C405.6,508.8,405.2,508.7,404.8,508.1z M415.5,497.3h-3.6c0,0.4-0.1,0.8-0.1,1.1c0,3.1,0,6.2,0,9.3
		c0,0.9,0,0.9-1.1,0.8v-11.2H407c0-0.4,0-0.7-0.1-1h8.6V497.3z M408.2,486.7V467c0.1,0,0.3-0.1,0.5-0.1c0.2,0,0.4,0.1,0.7,0.1v18.5
		h7.4c0,0.4,0,0.8,0.1,1.2H408.2z M426.4,508.6c-0.4,0-0.8,0.1-1.2,0.1c-2.2-3.4-4.3-6.8-6.5-10.2c-0.1,0-0.2,0.1-0.3,0.1
		c-0.2,3.3,0,6.6-0.1,9.9c-0.5,0.2-1,0.3-1.1-0.4c0-3.9,0-7.8,0-11.8c0.3,0,0.4-0.1,0.6-0.1c0.3,0,0.5,0,0.8,0
		c2.2,3.4,4.3,6.8,6.5,10.3c0.1,0,0.1,0,0.2,0v-10.1c0.4-0.1,0.7-0.1,1.1-0.2V508.6z M428.5,486.6H420v-19.7c0.3,0,0.6,0,1-0.1v18.6
		h7.5V486.6z M436.4,508.6h-6.7v-12.3h6.7v1h-5.6v4.6h5.1v1.1h-5.1v4.6h5.6V508.6z M435.7,479.9c-0.9,0.1-1.8,0-2.8,0v6.7
		c-0.4,0-0.8,0.1-1.2,0.1V467c0.3,0,0.6-0.1,0.9-0.1c1.3,0,2.5,0,3.8,0c3.2,0.1,5.9,2.5,6.3,5.7c0.4,3.1-1.5,6.1-4.5,7
		C437.3,479.8,436.5,479.8,435.7,479.9z M445.4,508.1c-0.6-1.2-1.4-2.3-2-3.5c-0.4-0.7-0.9-1-1.7-0.9c-0.5,0.1-1.1,0-1.8,0
		c0,1.2,0,2.3,0,3.4c0,0.4,0,0.7,0,1.1c-0.1,0.6-0.5,0.7-1,0.5v-12.3c1.6,0,3.1-0.1,4.6,0c1.6,0.2,2.8,1.5,3.1,3
		c0.3,1.4-0.3,2.8-1.7,3.7c-0.2,0.1-0.5,0.3-0.8,0.5c0.9,1.6,1.9,3.3,2.9,5C446.1,508.8,445.7,508.7,445.4,508.1z"/>
	<path fill="#BB2326" d="M365.8,442.7c-0.3,0.3-12.6,13.9-13.1,14.5c0-46.7,0-93.3,0-139.9c0.3,0,0.6-0.1,0.9-0.1
		c23.4,0,46.8,0,70.2,0c4.9,0,8.6,3.7,8.8,8.6c0,0.5,0,0.9,0,1.4c0,31.7,0,63.4,0,95.1c0,0.5,0,1,0,1.6c-4.5,0-8.8,0-13.2,0
		c0-6.8,0-13.5,0-20.3c-17.9,0-35.7,0-53.6,0c0,0.4,0,0.9,0,1.4C365.8,417.5,365.8,430.1,365.8,442.7 M365.9,390.1
		c17.9,0,35.7,0,53.5,0c0-20,0-39.8,0-59.7c-17.8,0-35.6,0-53.5,0C365.9,350.3,365.9,370.2,365.9,390.1z"/>
	<path fill="#BA2125" d="M246.1,443c0-0.5,0-12.4,0-18.7c0-0.5,0-1,0-1.7c-0.6,0-1.1,0-1.6,0c-20.2,0-40.4,0-60.6,0
		c-0.4,0-0.8,0-1.2,0c-1.8-0.1-3.2-1.5-3.3-3.3c0-0.4,0-0.7,0-1.1c0-30.6,0-61.2,0-91.8c0-1.2,0.1-2.4,0.5-3.4
		c1.1-3.5,4.3-5.8,8-5.8c3.1,0,6.2,0,9.3,0c20.2,0,40.3,0,60.5,0c0.5,0,1,0,1.6,0c0,46.7,0,93.3,0,140.1c-0.4-0.4-0.6-0.6-0.9-0.9
		 M246,409.4c0-26.3,0-52.6,0-79c-17.9,0-35.6,0-53.5,0c0,26.3,0,52.6,0,79C210.4,409.4,228.2,409.4,246,409.4z"/>
	<path fill="#1A1919" d="M306,347.4c0,33.5,0,67.4,0,100.9c0,0.5,0,1.1,0,1.7c12.2,0,24.3,0,36.5,0c0-44.3,0-88.5,0-132.8
		c2.6,0,5,0,7.5,0c0,46.6,0,93.3,0,140c-29.3,0-58.6,0-88,0c0-46.6,0-93.3,0-140.1c9.1,0,4.6,0.1,6.3,0 M269.7,321.3
		c0,43.4,0,85.5,0,128.7c11.3,0,22.6,0,34,0c0-0.5,0.1-0.9,0.1-1.3c0-33.3,0-66.6,0-99.9"/>
	<path fill="#1E1D1D" d="M197.7,486.2c2.1,0.1,4.1,0,6-1c1.4-0.8,2-2.2,2.3-3.7c0.2-1.1,0.3-2.1,0.3-3.2c0-3.4,0-6.8,0-10.3
		c0-0.4,0-0.7,0.1-1.1c0.1-0.2,0.4-0.3,0.6-0.4c0.1,0,0.3,0.2,0.4,0.4c0.1,0.1,0,0.4,0,0.5c-0.1,4.3-0.2,8.6-0.4,13
		c0,0.8-0.3,1.7-0.5,2.5c-0.8,2.4-2.6,3.6-5,4c-2.4,0.4-4.7,0.4-7.1-0.2c-3.1-0.7-4.6-2.5-4.8-5.7c-0.1-2.6-0.1-5.2-0.1-7.8
		c0-2.1,0-4.2,0-6.4c2.7,0,5.4,0,8.2,0C197.7,473.2,197.7,479.6,197.7,486.2z"/>
	<path fill="#1E1D1D" d="M183.6,485.1c1.3,1,2.5,1.9,3.6,2.8c-0.2,0.8-0.7,0.7-1.1,0.4c-0.8-0.6-1.6-1.2-2.4-1.8
		c-0.3-0.2-0.6-0.5-0.8-0.7c-1.2,0.4-2.2,0.9-3.4,1.2c-3.5,0.7-6.5-0.5-8.8-3.2c-3.6-4.1-3.4-10.8,0.3-14.8c4-4.3,10.6-3.9,14.1,0.8
		c3.3,4.4,3,10.7-0.9,14.7C184.1,484.7,183.9,484.8,183.6,485.1z M176.8,486c1.7,0.4,3.3,0,5.1-1c-0.4-0.5-0.8-1-1.2-1.4
		c-0.3-0.4-0.7-0.9-0.9-1.3c-0.1-0.1,0-0.5,0.1-0.6c0.1-0.1,0.4-0.1,0.6,0c0.2,0.2,0.4,0.5,0.6,0.7c0.6,0.7,1.2,1.3,1.8,2.1
		c3.1-2.8,4.1-6.1,3.3-10c-0.7-3.4-2.6-5.9-6-7c-1.1-0.4-2.2-0.7-3.4-0.2C176.8,473.5,176.8,479.8,176.8,486z"/>
	<path fill="#1D1B1B" d="M219.8,486.6c-0.4-0.8-0.8-1.6-1.3-2.5c-2.9,0-5.9,0-8.8,0c-0.9,0.8-0.8,2.4-2.1,3c-0.5-0.6-0.2-1,0-1.3
		c0.5-1.1,1.1-2.2,1.7-3.2c2.9-5.4,5.8-10.8,8.7-16.3c0.1-0.2,0.2-0.4,0.5-0.8c3.6,7.1,7.1,14,10.6,21.1
		C225.9,486.6,222.9,486.6,219.8,486.6z M218,483c-1.3-2.7-2.5-5.1-3.7-7.8c-1.4,2.7-2.7,5.2-4.1,7.8C212.9,483,215.4,483,218,483z"
		/>
	<path fill="#2B2929" d="M259.4,469.4c0,5.7,0,11.4,0,17.2c-0.4,0-0.8,0.1-1.2,0.1c0-6.6,0-13.1,0-19.6c1.3-0.4,1.3-0.4,2.1,0.7
		c3.8,5.3,7.5,10.6,11.3,15.8c0.3,0.4,0.5,0.7,0.9,1.3c0.3-1.7,0.1-3.2,0.1-4.6c0-1.5,0-3,0-4.5c0-1.4,0-2.9,0-4.3c0-1.5,0-3,0-4.5
		c0.4,0,0.8,0,1.1,0c0,6.6,0,13.1,0,19.6c-1.1,0.3-1.8,0-2.5-0.9c-3.5-5.1-7.1-10.1-10.7-15.1c-0.3-0.4-0.6-0.8-0.9-1.2
		C259.6,469.4,259.5,469.4,259.4,469.4z"/>
	<path fill="#232222" d="M304.4,466.9c1.8,0,3.4-0.1,5.1,0c2.7,0.2,5.2,2.4,5.7,5c0.6,3-0.8,5.8-3.4,7.2c-0.4,0.2-0.7,0.3-1.3,0.5
		c0.7,1.2,1.5,2.3,2.2,3.5c0.7,1.1,1.4,2.3,2.2,3.4c-1,0.4-1.5,0-2-0.8c-1-1.7-2.2-3.4-3.3-5.1c-0.4-0.6-0.8-0.9-1.5-0.8
		c-0.8,0.1-1.7,0-2.6,0c0,2.4,0,4.6,0,6.8c-0.4,0-0.7,0-1.1,0C304.4,480.1,304.4,473.6,304.4,466.9z M305.6,478.6c1.2,0,2.3,0,3.4,0
		c2.6-0.1,4.8-2.1,5.2-4.6c0.3-2.7-1.3-5.1-4-5.8c-1.5-0.4-3-0.1-4.5-0.2C305.6,471.7,305.6,475.1,305.6,478.6z"/>
	<path fill="#232222" d="M338.9,479.7c1.5,2.4,3,4.6,4.4,6.9c-1,0.4-1.5,0-2-0.8c-1-1.7-2.2-3.4-3.3-5.1c-0.4-0.6-0.8-0.9-1.5-0.8
		c-0.8,0.1-1.7,0-2.6,0c0,2.3,0,4.5,0,6.8c-0.4,0-0.7,0.1-1.1,0.1c0-6.6,0-13.1,0-19.7c1.9,0,3.9-0.2,5.8,0c2.5,0.3,4.7,2.7,5,5.2
		c0.4,3-0.9,5.6-3.4,6.9C339.9,479.3,339.5,479.5,338.9,479.7z M334,478.7c1.1,0,2.1,0,3.1,0c0.3,0,0.6,0,0.9-0.1
		c2.4-0.4,4.3-2.5,4.4-4.9c0.1-2.6-1.4-4.8-3.9-5.4c-1.5-0.3-3-0.2-4.6-0.3C334,471.7,334,475.1,334,478.7z"/>
	<path fill="#252525" d="M300.5,467c0,0.4,0,0.7,0,1.1c-2.9,0-5.7,0-8.7,0c0,2.8,0,5.4,0,8.2c2.9,0,5.8,0,8.7,0c0,0.4,0,0.7,0,1.1
		c-2.9,0-5.7,0-8.5,0c-0.3,1-0.4,5.5-0.2,8.1c2.8,0,5.6,0,8.6,0c0,0.5,0,0.8,0,1.2c-3.3,0-6.5,0-9.8,0c0-6.6,0-13.1,0-19.7
		C293.9,467,297.1,467,300.5,467z"/>
	<path fill="#312E2E" d="M366.3,466.9c3.2,0,6.4,0,9.8,0c0,0.3,0,0.7,0.1,1.1c-2.9,0-5.7,0-8.6,0c0,2.7,0,5.4,0,8.1
		c2.8,0,5.6,0,8.5,0c0,0.4,0.1,0.8,0.1,1.2c-2.9,0-5.7,0-8.6,0c0,2.7,0,5.4,0,8.1c2.9,0,5.7,0,8.6,0c0,0.4,0,0.8,0.1,1.2
		c-3.3,0-6.5,0-9.7,0C366.1,485.8,366,468.7,366.3,466.9z"/>
	<path fill="#312E2E" d="M245.7,468.1c0,2.7,0,5.3,0,8c2.8,0,5.7,0,8.6,0c0,0.4,0,0.7,0,1.1c-2.8,0-5.6,0-8.6,0c0,2.7,0,5.4,0,8.1
		c2.8,0,5.6,0,8.5,0c0,0.5,0,0.9,0,1.3c-3.3,0-6.5,0-9.8,0c0-6.6,0-13.1,0-19.7c3.2,0,6.5,0,9.8,0c0,0.3,0,0.7,0,1.2
		C251.4,468.1,248.6,468.1,245.7,468.1z"/>
	<path fill="#312E2E" d="M432.9,479.9c0,2.3,0,4.5,0,6.7c-0.4,0-0.8,0.1-1.2,0.1c0-6.6,0-13.1,0-19.7c0.3,0,0.6-0.1,0.9-0.1
		c1.3,0,2.5,0,3.8,0c3.2,0.1,5.9,2.5,6.3,5.7c0.4,3.1-1.5,6.1-4.5,7c-0.8,0.2-1.6,0.3-2.4,0.3C434.8,479.9,433.9,479.9,432.9,479.9z
		 M432.9,478.6c1.3,0,2.4,0,3.5,0c2.5-0.1,4.6-2.1,4.9-4.4c0.3-2.8-1.1-5.1-3.6-5.9c-1.6-0.5-3.2-0.2-4.7-0.2
		C432.9,471.7,432.9,475.1,432.9,478.6z"/>
	<path fill="#312E2E" d="M318.6,467c2,0,4-0.2,5.8,0c3.1,0.4,5.3,3.4,5.1,6.7c-0.1,3.1-2.6,5.8-5.7,6c-1.3,0.1-2.6,0-4,0
		c0,2.3,0,4.5,0,6.8c-0.5,0-0.8,0-1.3,0C318.6,480.1,318.6,473.6,318.6,467z M319.8,478.6c1.3,0,2.6,0.1,3.8,0
		c2.6-0.2,4.6-2.5,4.6-5.1c0.1-2.7-1.9-5.1-4.5-5.4c-1.3-0.1-2.6,0-3.9,0C319.8,471.7,319.8,475.1,319.8,478.6z"/>
	<path fill="#2B2929" d="M361.2,469.4c-0.4,0.2-0.6,0.3-1,0.4c-0.3-0.4-0.5-0.7-0.8-1c-1.2-1.2-3-1.3-4.2-0.2
		c-1.2,1.1-1.4,3-0.2,4.2c0.8,0.7,1.8,1.2,2.7,1.7c1.1,0.6,2.3,1.1,3.2,1.9c2.1,1.7,2.7,4.4,1.7,6.8c-1,2.3-3.4,3.8-5.8,3.6
		c-2.8-0.2-4.8-2-5.4-4.9c0.3-0.1,0.6-0.3,1-0.5c0.1,0.3,0.2,0.6,0.3,0.8c0.7,2.1,2.4,3.4,4.5,3.4c2,0,3.4-1,4.3-2.8
		c0.8-1.7,0.5-3.4-0.7-4.9c-0.9-1.1-2.1-1.8-3.4-2.3c-0.9-0.4-1.8-0.8-2.6-1.4c-1.6-1.2-2.2-2.9-1.6-4.6c0.5-1.6,2-2.8,3.6-3
		C358.8,466.6,360.2,467.4,361.2,469.4z"/>
	<path fill="#2A2828" d="M379.2,482c0.3-0.1,0.6-0.3,1-0.4c0.1,0.3,0.2,0.5,0.2,0.7c0.6,2.1,2.4,3.5,4.4,3.5c2.1,0,3.9-1.2,4.5-3.1
		c0.5-1.7,0.3-3.3-0.9-4.7c-1-1.1-2.1-1.8-3.5-2.2c-1.2-0.4-2.3-1-3.2-2c-1.2-1.4-1.4-2.9-0.7-4.5c0.8-1.7,2.1-2.5,4-2.5
		c1.8,0.1,3,1,3.8,2.7c-0.4,0.2-0.7,0.3-1,0.4c-0.3-0.4-0.5-0.7-0.7-0.9c-1.1-1.3-3-1.4-4.2-0.3c-1.3,1.2-1.4,3.1-0.2,4.3
		c0.8,0.7,1.8,1.2,2.7,1.7c1.3,0.6,2.6,1.3,3.6,2.3c1.8,1.8,2.2,4.5,1.1,6.7c-1.1,2.3-3.6,3.6-6,3.2
		C381.6,486.5,379.7,484.7,379.2,482z"/>
	<path fill="#2B2929" d="M367.4,499.1c-0.3,0.1-0.5,0.3-0.8,0.4c-0.2-0.2-0.3-0.4-0.5-0.5c-1.3-1.6-2.9-2.2-4.9-1.7
		c-2,0.6-3.1,2.1-3.4,4.1c-0.2,1.5,0,2.9,0.9,4.1c1.2,1.6,2.8,2.3,4.7,1.9c1.8-0.3,3.2-1.3,3.6-3.2c0.1-0.4,0.1-0.9,0.2-1.4
		c-1.4,0-2.7,0-4,0c-0.8,0-0.8,0-0.6-1.1c1.9,0,3.7,0,5.7,0c0,2.2,0,4.4,0,6.5c-0.9,0.3-1,0.3-1-0.5c0-0.3,0-0.7,0-1.3
		c-0.4,0.3-0.6,0.5-0.8,0.7c-1.8,1.5-3.8,1.8-6,1c-2.2-0.8-3.4-2.5-3.7-4.8c-0.3-2.1,0.1-4.1,1.5-5.7
		C361.4,494.4,366.1,496.2,367.4,499.1z"/>
	<path fill="#2C2A2A" d="M417.2,496.3c0.3,0,0.4-0.1,0.6-0.1c0.3,0,0.5,0,0.8,0c2.2,3.4,4.3,6.8,6.5,10.3c0.1,0,0.1,0,0.2,0
		c0-3.3,0-6.7,0-10.1c0.4-0.1,0.7-0.1,1.1-0.2c0,4.2,0,8.2,0,12.4c-0.4,0-0.8,0.1-1.2,0.1c-2.2-3.4-4.3-6.8-6.5-10.2
		c-0.1,0-0.2,0.1-0.3,0.1c-0.2,3.3,0,6.6-0.1,9.9c-0.5,0.2-1,0.3-1.1-0.4C417.2,504.1,417.2,500.2,417.2,496.3z"/>
	<path fill="#2B2929" d="M354.1,508.5c-1.2,0.3-1.3,0.3-1.8-0.6c-2-3.2-4-6.3-6.1-9.7c-0.1,0.5-0.2,0.7-0.2,1c0,2.8,0,5.7,0,8.5
		c0,0.9,0,0.9-1.1,0.8c0-4,0-8.1,0-12.2c0.4,0,0.9-0.1,1.3-0.1c2.2,3.4,4.3,6.8,6.5,10.4c0.5-1.3,0.2-2.4,0.3-3.4
		c0.1-1.1,0-2.3,0-3.4c0-1.1,0-2.2,0-3.4c0.4,0,0.7,0,1-0.1C354.1,500.4,354.1,504.4,354.1,508.5z"/>
	<path fill="#2B2929" d="M298.6,502.1c0.2,0.2,0.2,0.3,0.3,0.4c1.2,1.1,1.7,2.3,1.1,3.9c-0.6,1.5-1.9,2.3-3.5,2.3
		c-1.3,0.1-2.6,0-3.9,0c-0.3-1-0.4-10.6-0.1-12.4c1.5,0,2.9-0.1,4.4,0c2.3,0.2,3.5,2.8,2.4,4.8C299.1,501.3,298.9,501.7,298.6,502.1
		z M293.5,502.7c-0.1,1.7,0,3.2,0,4.8c1.1,0,2,0,2.9,0c0.3,0,0.5-0.1,0.8-0.2c0.8-0.2,1.5-0.7,1.8-1.5c0.6-1.4-0.6-3-2.3-3.1
		C295.7,502.7,294.7,502.7,293.5,502.7z M293.6,501.6c1,0,1.8,0,2.7,0c0.2,0,0.4-0.1,0.7-0.1c1.1-0.3,1.8-1.1,1.8-2.1
		c0-1-0.9-1.9-2-2c-1-0.1-2,0-3.1,0C293.6,498.8,293.6,500.1,293.6,501.6z"/>
	<path fill="#2C2A2A" d="M244,508.4c-0.9,0.4-1.3,0.2-1.6-0.4c-0.7-1.2-1.4-2.4-2.1-3.6c-0.3-0.5-0.6-0.8-1.3-0.8
		c-0.7,0.1-1.3,0-2.1,0c0,1.4,0,2.8,0,4.1c0,0.6-0.2,1.1-1,0.8c0-4.1,0-8.1,0-12.3c1.5,0,3.1-0.2,4.7,0.1c1.6,0.3,2.7,1.3,3.1,3
		c0.3,1.4-0.4,2.7-1.8,3.6c-0.2,0.1-0.5,0.3-0.7,0.4C242.1,505.1,243,506.7,244,508.4z M237,502.5c1.1,0,2.1,0.1,3,0
		c1.4-0.1,2.5-1.3,2.6-2.5c0-1.2-1.1-2.4-2.5-2.6c-1-0.1-2,0-3.1,0C237,499.1,237,500.7,237,502.5z"/>
	<path fill="#2C2A2A" d="M205.7,503.4c1,1.7,1.9,3.3,2.9,5c-0.8,0.5-1.2,0.2-1.5-0.4c-0.7-1.2-1.4-2.3-2-3.5c-0.4-0.7-0.8-1-1.6-0.9
		c-0.6,0.1-1.2,0-1.9,0c0,1.5,0,2.8,0,4.2c0,0.8-0.1,0.8-1.1,0.7c0-4,0-8.1,0-12.3c1.6,0,3.2-0.2,4.8,0.1c1.6,0.4,2.7,1.4,3,3.1
		c0.2,1.6-0.5,2.8-1.9,3.6C206.1,503.2,206,503.3,205.7,503.4z M201.6,502.5c1.1,0,2,0.1,3,0c1.4-0.1,2.6-1.2,2.6-2.5
		c0.1-1.2-0.9-2.4-2.3-2.6c-1.1-0.1-2.2,0-3.3,0C201.6,499.1,201.6,500.7,201.6,502.5z"/>
	<path fill="#2C2A2A" d="M398.3,508.5c0-4.1,0-8.1,0-12.3c1.5,0,3-0.1,4.4,0c1.6,0.1,2.9,1.4,3.3,3c0.3,1.4-0.3,2.8-1.7,3.7
		c-0.2,0.1-0.5,0.3-0.8,0.5c0.9,1.6,1.9,3.3,2.9,5c-0.7,0.4-1.2,0.3-1.5-0.3c-0.7-1.2-1.4-2.4-2.1-3.6c-0.3-0.6-0.8-0.9-1.5-0.8
		c-0.6,0.1-1.2,0-2,0c0,1.2,0,2.3,0,3.4c0,0.4,0,0.7,0,1.1C399.2,508.6,399.2,508.6,398.3,508.5z M399.3,502.5c1.1,0,2,0.1,2.9,0
		c1.4-0.1,2.6-1.2,2.7-2.4c0.1-1.2-1-2.5-2.4-2.6c-1-0.1-2.1,0-3.2,0C399.3,499.1,399.3,500.7,399.3,502.5z"/>
	<path fill="#2C2A2A" d="M446.9,508.4c-0.8,0.4-1.2,0.2-1.5-0.3c-0.6-1.2-1.4-2.3-2-3.5c-0.4-0.7-0.9-1-1.7-0.9
		c-0.5,0.1-1.1,0-1.8,0c0,1.2,0,2.3,0,3.4c0,0.4,0,0.7,0,1.1c-0.1,0.6-0.5,0.7-1,0.5c0-4.1,0-8.1,0-12.3c1.6,0,3.1-0.1,4.6,0
		c1.6,0.2,2.8,1.5,3.1,3c0.3,1.4-0.3,2.8-1.7,3.7c-0.2,0.1-0.5,0.3-0.8,0.5C445,505.1,445.9,506.7,446.9,508.4z M440,497.3
		c0,1.8,0,3.4,0,5.1c1.1,0,2,0.1,3,0c1.4-0.1,2.4-1.2,2.5-2.4c0.1-1.2-0.9-2.3-2.3-2.7c-0.2,0-0.4-0.1-0.5-0.1
		C441.8,497.3,440.9,497.3,440,497.3z"/>
	<path fill="#2C2A2A" d="M186.3,502.2c0,1.6-0.3,2.8-1,3.9c-2.4,3.6-7.6,3.5-9.7-0.2c-1.3-2.3-1.3-4.6,0-6.9
		c1.2-2.1,3.6-3.3,5.8-2.9c2.5,0.5,4.5,2.4,4.9,5C186.2,501.5,186.3,501.9,186.3,502.2z M185.2,502.2c0-0.1,0-0.5-0.1-0.9
		c-0.4-1.9-1.5-3.4-3.5-3.9c-1.9-0.5-3.5,0.1-4.7,1.6c-1.6,2-1.6,5.2,0.1,7.1c1.8,2.1,4.9,2.1,6.8,0.1
		C184.7,505.1,185.2,503.9,185.2,502.2z"/>
	<path fill="#272626" d="M421,485.5c1.4,0,2.6,0,3.8,0c1.2,0,2.4,0,3.7,0c0,0.4,0,0.8,0,1.2c-2.8,0-5.7,0-8.6,0c0-6.6,0-13.1,0-19.7
		c0.3,0,0.6,0,1-0.1C421,473.1,421,479.2,421,485.5z"/>
	<path fill="#2A2828" d="M328,508.7c0-4.2,0-8.2,0-12.5c1.8,0.1,3.6-0.3,5.4,0.2c3,0.9,4.7,3.8,4.2,7c-0.4,3-2.9,5.2-6,5.2
		C330.5,508.7,329.4,508.7,328,508.7z M329.1,497.4c0,3.4,0,6.7,0,10.1c0.9,0,1.6,0,2.4,0c0.3,0,0.6-0.1,0.9-0.1
		c2.4-0.4,4.1-2.3,4.1-4.8c0.1-2.5-1.4-4.7-3.8-5.2C331.6,497.2,330.4,497.4,329.1,497.4z"/>
	<path fill="#1F1F1F" d="M281.6,468.1c-1.7,0-3.3,0-5,0c0-0.4,0-0.7,0-1.1c3.6,0,7.3,0,11,0c0,0.3,0.1,0.7,0.1,1.1c-1.7,0-3.3,0-5,0
		c0,3.2,0,6.2,0,9.3c0,3.1,0,6.1,0,9.3c-0.4,0-0.7,0-1.1,0C281.6,480.5,281.6,474.4,281.6,468.1z"/>
	<path fill="#272727" d="M261.6,508.6c-2.3,0-4.4,0-6.7,0c0-4.1,0-8.2,0-12.3c2.2,0,4.4,0,6.7,0c0,0.3,0,0.6,0,1.1
		c-1.9,0-3.7,0-5.6,0c0,1.5,0,3,0,4.5c1.7,0,3.4,0,5.1,0c0,0.4,0,0.7,0,1.1c-1.7,0-3.4,0-5.1,0c0,1.6,0,3,0,4.6c1.9,0,3.7,0,5.6,0
		C261.6,507.9,261.6,508.2,261.6,508.6z"/>
	<path fill="#272727" d="M227.8,501.9c1.7,0,3.4,0,5.1,0c0,0.4,0,0.7,0,1.1c-1.7,0-3.3,0-5.1,0c0,1.6,0,3,0,4.6c1.9,0,3.7,0,5.6,0
		c0,0.4,0,0.7,0.1,1.1c-2.3,0-4.4,0-6.8,0c0-4.1,0-8.1,0-12.3c2.3,0,4.5,0,6.8,0c0,0.3,0,0.6,0,1c-1.9,0-3.7,0-5.6,0
		C227.8,498.9,227.8,500.3,227.8,501.9z"/>
	<path fill="#272727" d="M436.4,496.3c0,0.3,0,0.6,0,1c-1.9,0-3.7,0-5.6,0c0,1.6,0,3,0,4.6c1.7,0,3.4,0,5.1,0c0,0.4,0,0.7,0,1.1
		c-1.7,0-3.4,0-5.1,0c0,1.6,0,3,0,4.6c1.9,0,3.7,0,5.6,0c0,0.4,0,0.7,0,1.1c-2.2,0-4.4,0-6.7,0c0-4.1,0-8.2,0-12.3
		C431.9,496.3,434.1,496.3,436.4,496.3z"/>
	<path fill="#2C2A2A" d="M274.5,499.6c-0.3,0.2-0.6,0.3-0.9,0.5c-0.1-0.2-0.3-0.3-0.4-0.5c-1.1-1.8-2.7-2.6-4.8-2.3
		c-2.1,0.4-3.3,1.8-3.8,3.8c-0.6,2.3,0.4,4.9,2.4,6c1.9,1.1,4.3,0.6,5.7-1.1c0.3-0.3,0.5-0.7,0.8-1.1c0.2,0,0.3,0,0.4,0.1
		c0.2,0.1,0.3,0.2,0.4,0.3c-0.8,2.6-4.2,4.3-7.2,3.1c-2.5-1-3.9-3.6-3.7-6.7c0.2-2.7,2.1-4.9,4.6-5.5
		C270.7,495.5,273.2,496.8,274.5,499.6z"/>
	<path fill="#2D2B2B" d="M310.3,496.2c0.4,0,0.7,0,1.1,0c0,1.1,0,2.2,0,3.3c0,1.7,0,3.4,0,5.1c-0.1,2.3-1.7,3.9-4,4.1
		c-2.5,0.1-4.3-1.2-4.7-3.5c0-0.1-0.1-0.2-0.1-0.3c0-2.9,0-5.7,0-8.7c0.4,0,0.6,0,1-0.1c0,0.2,0.1,0.4,0.1,0.6c0,2.5,0,5,0,7.4
		c0,1.7,0.7,2.8,2.2,3.2c2.6,0.8,4.5-1,4.5-3c0-2.3,0-4.5,0-6.8C310.3,497.2,310.3,496.8,310.3,496.2z"/>
	<path fill="#2D2B2B" d="M196.4,496.3c0.4,0,0.7,0,1.1,0c0,1.4,0,2.7,0,4.1c0,1.4,0,2.7,0,4.1c0,2.6-1.7,4.3-4.3,4.4
		c-2.6,0-4.5-1.7-4.5-4.3c-0.1-1.8,0-3.5,0-5.3c0-0.9,0-1.9,0-2.9c0.4,0,0.7-0.1,1-0.1c0,0.2,0.1,0.4,0.1,0.6c0,2.4,0,4.8,0,7.2
		c0,0.7,0.2,1.6,0.5,2.2c0.7,1.2,2.4,1.8,3.8,1.4c1.4-0.4,2.3-1.5,2.3-3c0-2.3,0-4.6,0-6.9C196.4,497.2,196.4,496.8,196.4,496.3z"/>
	<path fill="#3A3838" d="M409.3,485.4c2.5,0,4.9,0,7.4,0c0,0.4,0,0.8,0.1,1.2c-3,0-5.8,0-8.7,0c0-6.6,0-13.1,0-19.7
		c0.1,0,0.3-0.1,0.5-0.1c0.2,0,0.4,0.1,0.7,0.1C409.3,473.1,409.3,479.2,409.3,485.4z"/>
	<path fill="#2D2B2B" d="M378.2,504.1c0,1.4,0,2.6,0,3.8c0,0.7-0.3,0.9-1,0.7c0-4.1,0-8.1,0-12.3c1.5,0,3.1-0.2,4.6,0
		c1.9,0.2,3.3,2.2,3.1,4c-0.2,2-1.8,3.6-3.9,3.7C380.1,504.1,379.2,504.1,378.2,504.1z M378.2,503c1.2-0.1,2.3-0.1,3.3-0.3
		c1.4-0.3,2.4-1.5,2.3-2.8c-0.1-1.3-1.2-2.5-2.6-2.7c-1-0.1-1.9,0-3,0C378.2,499.2,378.2,501,378.2,503z"/>
	<path fill="#2B2929" d="M388.4,504.9c-0.4,1.1-0.8,2.1-1.1,3.1c-0.2,0.6-0.5,0.8-1.2,0.4c1.5-4.1,2.9-8.1,4.4-12.2
		c0.5,0,0.9,0,1.4,0c1.5,4.1,2.9,8.1,4.4,12.2c-0.8,0.4-1.1,0.2-1.4-0.4c-0.3-1-0.7-2-1.1-3.1C392.1,504.9,390.3,504.9,388.4,504.9z
		 M393.4,503.7c-0.8-2-1.5-4-2.3-6.2c-0.5,1.2-0.9,2.2-1.2,3.2c-0.3,1-0.9,1.9-0.9,3C390.5,503.7,391.9,503.7,393.4,503.7z"/>
	<path fill="#272626" d="M217.6,504.1c0,1.6,0,3,0,4.4c-0.6,0.2-1.1,0.3-1.1-0.5c0-3.9,0-7.8,0-11.8c1.6,0,3.1-0.1,4.5,0
		c2,0.2,3.4,2,3.3,4c-0.1,2-1.7,3.6-3.8,3.8C219.6,504.1,218.6,504.1,217.6,504.1z M217.7,497.3c0,1.9,0,3.7,0,5.6
		c0.9,0,1.7,0,2.5,0c0.3,0,0.5-0.1,0.8-0.2c1.4-0.4,2.3-1.5,2.3-2.8c-0.1-1.3-1.2-2.5-2.6-2.6C219.7,497.3,218.7,497.3,217.7,497.3z
		"/>
	<path fill="#2A2828" d="M252.7,496.3c0,0.3,0,0.6,0,1c-1.9,0-3.7,0-5.6,0c0,1.6,0,3,0,4.6c1.7,0,3.4,0,5.1,0c0,0.4,0,0.7,0,1.1
		c-1.7,0-3.3,0-5.2,0c0,1.4,0,2.7,0,4c0,0.4,0,0.7,0,1.1c-0.1,0.6-0.1,0.6-1,0.5c0-4,0-8.1,0-12.2
		C248.1,496.3,250.4,496.3,252.7,496.3z"/>
	<path fill="#312E2E" d="M173.3,496.4c-1.3,2.2-2.4,4.3-3.7,6.4c-0.4,0.7-0.6,1.4-0.6,2.2c0,1,0,2,0,3c0,0.7-0.4,0.8-1.1,0.6
		c0-1.1,0-2.3,0-3.5c0-0.8-0.2-1.6-0.6-2.3c-1.2-2.1-2.4-4.2-3.6-6.3c1-0.4,1.1-0.4,1.5,0.4c1.1,1.9,2.1,3.7,3.3,5.7
		c1-1.7,1.8-3.2,2.7-4.8c0.2-0.4,0.4-0.7,0.6-1.1C172.1,496.1,172.5,496,173.3,496.4z"/>
	<path fill="#3A3838" d="M347,467c0.4,0,0.7-0.1,1.1-0.1c0,6.6,0,13.2,0,19.8c-0.2,0-0.4,0.1-0.6,0.1c-0.2,0-0.3-0.1-0.6-0.1
		C347,480.1,347,473.6,347,467z"/>
	<path fill="#2D2B2B" d="M325.8,508.6c-2.4,0-4.5,0-6.9,0c0-4.1,0-8.2,0-12.3c0.4,0,0.6,0,1.1-0.1c0,3.8,0,7.5,0,11.3
		c1.9,0,3.7,0,5.6,0C325.7,507.9,325.7,508.2,325.8,508.6z"/>
	<path fill="#252525" d="M410.7,497.3c-1.4,0-2.5,0-3.8,0c0-0.4,0-0.7-0.1-1c2.9,0,5.7,0,8.6,0c0,0.3,0,0.6,0,1c-1.2,0-2.4,0-3.6,0
		c0,0.4-0.1,0.8-0.1,1.1c0,3.1,0,6.2,0,9.3c0,0.9,0,0.9-1.1,0.8C410.7,504.8,410.7,501.2,410.7,497.3z"/>
	<path fill="#252525" d="M279.7,508.6c0-3.8,0-7.5,0-11.2c-1.3,0-2.4,0-3.7,0c0-0.4,0-0.7-0.1-1.1c2.9,0,5.7,0,8.6,0
		c0,0.3,0.1,0.6,0.1,1c-1.3,0-2.5,0-3.7,0c0,0.5-0.1,0.9-0.1,1.3c0,3,0,6,0,9.1C280.8,508.6,280.8,508.6,279.7,508.6z"/>
	<path fill="#2A2828" d="M314.7,508.5c0-4.1,0-8.1,0-12.3c0.3,0,0.6,0,1,0c0,0.4,0,0.8,0,1.1c0,3.5,0,6.9,0,10.4
		C315.7,508.6,315.7,508.6,314.7,508.5z"/>
	<path fill="#2A2828" d="M340.7,496.2c0.3,0,0.6,0,1,0.1c0,1.4,0,2.7,0,4c0,2.5,0,5,0,7.5c0,0.7-0.1,1.1-1,0.8
		C340.7,504.5,340.7,500.4,340.7,496.2z"/>
	<path fill="#FFFFFE" d="M365.9,390.1c0-19.9,0-39.8,0-59.7c17.8,0,35.6,0,53.5,0c0,19.9,0,39.8,0,59.7
		C401.5,390.1,383.7,390.1,365.9,390.1z"/>
	<path fill="#FEFDFC" d="M246,409.4c-17.9,0-35.6,0-53.5,0c0-26.3,0-52.6,0-79c17.8,0,35.6,0,53.5,0C246,356.7,246,383,246,409.4z"
		/>
	<path fill="#FEFEFE" d="M303.8,448.7c0,0.4,0,0.8-0.1,1.3c-11.4,0-22.6,0-34,0 M299.9,398.2c0-1.3-1-2.3-2.3-2.3
		c-1.3,0-2.4,1.1-2.4,2.4c0,1.3,1.1,2.3,2.4,2.3C298.9,400.5,299.9,399.5,299.9,398.2z"/>
	<path fill="#F6F6F6" d="M176.8,486c0-6.2,0-12.5,0-18.8c1.2-0.5,2.3-0.1,3.4,0.2c3.4,1.1,5.3,3.6,6,7c0.8,3.9-0.3,7.2-3.3,10
		c-0.6-0.7-1.2-1.4-1.8-2.1c-0.2-0.2-0.4-0.5-0.6-0.7c-0.1-0.1-0.5-0.1-0.6,0c-0.1,0.1-0.2,0.4-0.1,0.6c0.3,0.5,0.6,0.9,0.9,1.3
		c0.4,0.5,0.8,1,1.2,1.4C180.2,486.1,178.5,486.4,176.8,486z"/>
	<path fill="#F7F7F7" d="M218,483c-2.7,0-5.2,0-7.9,0c1.4-2.6,2.7-5.1,4.1-7.8C215.6,477.9,216.7,480.3,218,483z"/>
	<path fill="#F7F7F7" d="M305.6,478.6c0-3.6,0-7,0-10.5c1.5,0,3-0.2,4.5,0.2c2.7,0.7,4.3,3.1,4,5.8c-0.3,2.6-2.5,4.6-5.2,4.6
		C307.9,478.7,306.8,478.6,305.6,478.6z"/>
	<path fill="#F7F7F7" d="M334,478.7c0-3.6,0-7,0-10.6c1.6,0.1,3.1,0,4.6,0.3c2.5,0.5,4.1,2.8,3.9,5.4c-0.1,2.4-2,4.5-4.4,4.9
		c-0.3,0.1-0.6,0-0.9,0.1C336.1,478.7,335.1,478.7,334,478.7z"/>
	<path fill="#FBFCFC" d="M432.9,478.6c0-3.5,0-6.9,0-10.5c1.6,0.1,3.2-0.2,4.7,0.2c2.5,0.8,4,3.1,3.6,5.9c-0.3,2.3-2.4,4.3-4.9,4.4
		C435.3,478.7,434.2,478.6,432.9,478.6z"/>
	<path fill="#FBFCFC" d="M319.8,478.6c0-3.5,0-7,0-10.5c1.3,0,2.7-0.1,3.9,0c2.6,0.3,4.6,2.7,4.5,5.4c-0.1,2.6-2,4.9-4.6,5.1
		C322.4,478.7,321.1,478.6,319.8,478.6z"/>
	<path fill="#F5F5F5" d="M293.5,502.7c1.1,0,2.1-0.1,3.1,0c1.8,0.1,2.9,1.7,2.3,3.1c-0.3,0.8-0.9,1.3-1.8,1.5
		c-0.3,0.1-0.5,0.1-0.8,0.2c-0.9,0-1.8,0-2.9,0C293.5,505.9,293.5,504.4,293.5,502.7z"/>
	<path fill="#F5F5F5" d="M293.6,501.6c0-1.5,0-2.8,0-4.3c1.1,0,2.1-0.1,3.1,0c1.1,0.1,2,1,2,2c0,1-0.7,1.8-1.8,2.1
		c-0.2,0.1-0.4,0.1-0.7,0.1C295.4,501.6,294.6,501.6,293.6,501.6z"/>
	<path fill="#F8F9FA" d="M237,502.5c0-1.8,0-3.4,0-5.1c1.1,0,2.1-0.1,3.1,0c1.4,0.1,2.5,1.4,2.5,2.6c0,1.2-1.1,2.4-2.6,2.5
		C239.1,502.5,238.1,502.5,237,502.5z"/>
	<path fill="#F8F9FA" d="M201.6,502.5c0-1.7,0-3.4,0-5.1c1.1,0,2.2-0.1,3.3,0c1.4,0.2,2.4,1.4,2.3,2.6c-0.1,1.2-1.2,2.3-2.6,2.5
		C203.6,502.5,202.6,502.5,201.6,502.5z"/>
	<path fill="#F8F9FA" d="M399.3,502.5c0-1.8,0-3.4,0-5.1c1.1,0,2.1-0.1,3.2,0c1.4,0.2,2.5,1.4,2.4,2.6c-0.1,1.2-1.2,2.3-2.7,2.4
		C401.3,502.5,400.4,502.5,399.3,502.5z"/>
	<path fill="#F8F9FA" d="M440,497.3c1,0,1.9,0,2.8,0c0.2,0,0.4,0,0.5,0.1c1.4,0.3,2.3,1.5,2.3,2.7c-0.1,1.2-1.2,2.3-2.5,2.4
		c-1,0.1-2,0-3,0C440,500.8,440,499.1,440,497.3z"/>
	<path fill="#F8F9FA" d="M185.2,502.2c0,1.7-0.4,2.9-1.4,4c-1.9,2-5,2-6.8-0.1c-1.7-2-1.7-5.1-0.1-7.1c1.2-1.5,2.8-2.1,4.7-1.6
		c2,0.5,3,2,3.5,3.9C185.1,501.6,185.1,502,185.2,502.2z"/>
	<path fill="#F6F6F6" d="M329.1,497.4c1.2,0,2.5-0.2,3.6,0c2.4,0.5,3.9,2.6,3.8,5.2c-0.1,2.5-1.7,4.4-4.1,4.8
		c-0.3,0.1-0.6,0.1-0.9,0.1c-0.8,0-1.5,0-2.4,0C329.1,504.1,329.1,500.8,329.1,497.4z"/>
	<path fill="#F7F7F7" d="M378.2,503c0-2,0-3.8,0-5.7c1,0,2-0.1,3,0c1.4,0.1,2.5,1.3,2.6,2.7c0.1,1.3-0.9,2.5-2.3,2.8
		C380.5,502.9,379.4,502.9,378.2,503z"/>
	<path fill="#ECEBEB" d="M393.4,503.7c-1.5,0-2.9,0-4.3,0c0-1.1,0.6-2,0.9-3c0.3-1,0.7-2,1.2-3.2
		C391.9,499.7,392.7,501.7,393.4,503.7z"/>
	<path fill="#F4F3F3" d="M217.7,497.3c1,0,2-0.1,3,0c1.4,0.1,2.6,1.3,2.6,2.6c0.1,1.3-0.8,2.4-2.3,2.8c-0.3,0.1-0.5,0.1-0.8,0.2
		c-0.8,0-1.6,0-2.5,0C217.7,501.1,217.7,499.2,217.7,497.3z"/>
	<path fill="#1E1D1D" d="M299.9,398.2c0,1.3-1,2.3-2.3,2.3c-1.3,0-2.3-1-2.4-2.3c0-1.3,1.1-2.4,2.4-2.4
		C298.9,395.9,299.9,396.9,299.9,398.2z"/>
</g>
<polyline fill="#121212" points="305.8,284.2 241.9,312.6 305.8,294.5 370.1,313 "/>
</svg>
